# xmcd
# 
# Track frame offsets:
#     150
#     17625
#     32700
# 
# Disc length: 666
# 
# Revision: 5
# Processed by: cddbd v1.5.2PL0 Copyright (c) Steve Scherf et al.
# Submitted via: fre:ac v1.0.17
# 
DISCID=19029803
DTITLE=SHIAM SHADE - Dreams
DYEAR=1998
DGENRE=Rock
TTITLE0=Dreams
TTITLE1=D.Z.I.
TTITLE2=Dreams (Backing Track)
EXTD=
EXTT0=
EXTT1=
EXTT2=
PLAYORDER=
